<?xml version="1.0" encoding="UTF-8" standalone="no"?>
<!-- Created with Inkscape (http://www.inkscape.org/) -->

<svg
   width="64mm"
   height="64mm"
   viewBox="0 0 64 64"
   version="1.1"
   id="svg1"
   inkscape:version="1.4.2 (f4327f4, 2025-05-13)"
   sodipodi:docname="alien attacker spaceship.svg"
   xmlns:inkscape="http://www.inkscape.org/namespaces/inkscape"
   xmlns:sodipodi="http://sodipodi.sourceforge.net/DTD/sodipodi-0.dtd"
   xmlns="http://www.w3.org/2000/svg"
   xmlns:svg="http://www.w3.org/2000/svg">
  <sodipodi:namedview
     id="namedview1"
     pagecolor="#ffffff"
     bordercolor="#999999"
     borderopacity="1"
     inkscape:showpageshadow="2"
     inkscape:pageopacity="0"
     inkscape:pagecheckerboard="0"
     inkscape:deskcolor="#d1d1d1"
     inkscape:document-units="mm"
     inkscape:zoom="2.8284271"
     inkscape:cx="115.08163"
     inkscape:cy="115.08163"
     inkscape:window-width="1920"
     inkscape:window-height="1017"
     inkscape:window-x="-8"
     inkscape:window-y="-5"
     inkscape:window-maximized="1"
     inkscape:current-layer="layer1" />
  <defs
     id="defs1" />
  <g
     inkscape:label="Layer 1"
     inkscape:groupmode="layer"
     id="layer1">
    <path
       id="path6"
       style="fill:#aae525;stroke:#000000;stroke-width:1.34892;stroke-dasharray:1.34892, 4.04677;stroke-opacity:0"
       inkscape:label="path6"
       d="M 54.688862,12.873517 A 19.126621,19.126621 0 0 0 35.562381,31.999998 19.126621,19.126621 0 0 0 54.688862,51.12648 19.126621,19.126621 0 0 0 62.833068,49.30592 17.06348,17.06348 0 0 1 46.643875,32.265098 17.06348,17.06348 0 0 1 63.707433,15.20154 a 17.06348,17.06348 0 0 1 0.127641,5.17e-4 19.126621,19.126621 0 0 0 -9.146212,-2.32854 z" />
    <path
       id="path6-1"
       style="opacity:1;fill:#aae525;stroke:#000000;stroke-width:1.62301;stroke-dasharray:1.62301, 4.86904;stroke-opacity:0"
       d="M 57.576247,8.994283 A 23.012976,23.012976 0 0 0 34.563698,32.007349 23.012976,23.012976 0 0 0 57.576247,55.020414 23.012976,23.012976 0 0 0 63.634791,54.201343 23.012976,23.012976 0 0 1 46.680271,32.007349 23.012976,23.012976 0 0 1 63.634791,9.8128377 23.012976,23.012976 0 0 0 57.576247,8.994283 Z" />
    <path
       id="path6-9"
       style="fill:#aae525;stroke:#000000;stroke-width:0.818619;stroke-dasharray:0.818619, 2.45586;stroke-opacity:0"
       inkscape:label="path6"
       d="M 23.597962,20.392708 A 11.607376,11.607376 0 0 1 35.205253,31.999999 11.607376,11.607376 0 0 1 23.597962,43.60729 11.607376,11.607376 0 0 1 18.655487,42.502447 10.355317,10.355317 0 0 0 28.480225,32.16088 10.355317,10.355317 0 0 0 18.124861,21.805516 a 10.355317,10.355317 0 0 0 -0.07746,3.13e-4 11.607376,11.607376 0 0 1 5.550563,-1.413121 z" />
    <path
       id="path6-9-2"
       style="fill:#aae525;stroke:#000000;stroke-width:1.15314;stroke-dasharray:1.15314, 3.45943;stroke-opacity:0"
       inkscape:label="path6"
       d="M 14.954327,22.983589 A 29.650604,9.0164449 0 0 1 44.604714,31.999968 29.650604,9.0164449 0 0 1 14.954327,41.016347 29.650604,9.0164449 0 0 1 2.3289619,40.15812 26.452266,8.043863 0 0 0 27.425884,32.124938 26.452266,8.043863 0 0 0 0.97349751,24.081038 26.452266,8.043863 0 0 0 0.77562951,24.081281 29.650604,9.0164449 0 0 1 14.954332,22.983589 Z" />
    <path
       id="path6-9-3"
       style="fill:#aae525;stroke:#000000;stroke-width:0.818619;stroke-dasharray:0.818619, 2.45586;stroke-opacity:0"
       inkscape:label="path6"
       d="M 33.346551,20.757117 A 11.607376,11.607376 0 0 1 44.953842,32.364408 11.607376,11.607376 0 0 1 33.346551,43.971699 11.607376,11.607376 0 0 1 28.404076,42.866856 10.355317,10.355317 0 0 0 38.228814,32.525289 10.355317,10.355317 0 0 0 27.87345,22.169925 a 10.355317,10.355317 0 0 0 -0.07746,3.13e-4 11.607376,11.607376 0 0 1 5.550563,-1.413121 z" />
    <path
       id="path6-1-5"
       style="fill:#aae525;stroke:#000000;stroke-width:1.25183;stroke-dasharray:1.25183, 3.7555;stroke-opacity:0"
       d="M 32.396771,14.250003 A 17.749924,17.749924 0 0 1 50.146366,31.999997 17.749924,17.749924 0 0 1 32.396771,49.749989 17.749924,17.749924 0 0 1 27.723813,49.118239 17.749924,17.749924 0 0 0 40.800845,31.999997 17.749924,17.749924 0 0 0 27.723813,14.881354 17.749924,17.749924 0 0 1 32.396771,14.250003 Z" />
    <circle
       style="opacity:1;fill:#aae525;stroke:#000000;stroke-width:0.583442;stroke-dasharray:0.583442, 1.75033;stroke-opacity:0"
       id="path7"
       cx="44.936771"
       cy="32.022366"
       r="6.8559599" />
    <path
       id="path8"
       style="opacity:1;fill:#aae525;stroke:#000000;stroke-width:1.57904;stroke-dasharray:1.57904, 4.73712;stroke-opacity:0"
       d="M 36.426116,16.322518 A 15.602146,15.602146 0 0 0 20.823967,31.924666 15.602146,15.602146 0 0 0 36.426116,47.526815 15.602146,15.602146 0 0 0 46.721095,43.647982 15.602146,15.602146 0 0 1 41.413926,31.92415 15.602146,15.602146 0 0 1 46.721095,20.200834 15.602146,15.602146 0 0 0 36.426116,16.322518 Z" />
    <path
       id="path6-9-7"
       style="fill:#aae525;stroke:#000000;stroke-width:0.730448;stroke-dasharray:0.730448, 2.19134;stroke-opacity:0"
       inkscape:label="path6"
       d="M 24.842682,24.851858 A 15.014325,7.1445939 0 0 1 39.856896,31.9964 15.014325,7.1445939 0 0 1 24.842682,39.140942 15.014325,7.1445939 0 0 1 18.449512,38.460887 13.394766,6.3739241 0 0 0 31.157965,32.095426 13.394766,6.3739241 0 0 0 17.76314,25.721473 13.394766,6.3739241 0 0 0 17.662948,25.721665 15.014325,7.1445939 0 0 1 24.84269,24.851858 Z" />
    <path
       id="path6-9-7-9"
       style="fill:#aae525;stroke:#000000;stroke-width:1.14248;stroke-dasharray:1.14248, 3.42744;stroke-opacity:0"
       inkscape:label="path6"
       d="M 31.648313,17.367674 A 17.933429,14.633209 0 0 1 49.581609,32.000776 17.933429,14.633209 0 0 1 31.648313,46.63388 17.933429,14.633209 0 0 1 24.012174,45.241023 15.998993,13.05476 0 0 0 39.19142,32.203597 15.998993,13.05476 0 0 0 23.192357,19.148777 a 15.998993,13.05476 0 0 0 -0.119668,3.93e-4 17.933429,14.633209 0 0 1 8.575637,-1.781496 z" />
    <path
       id="path7-4"
       style="fill:#aae525;stroke:#000000;stroke-width:0.583442;stroke-dasharray:0.583442, 1.75033;stroke-opacity:0"
       d="m 21.129495,28.948248 a 15.602146,15.602146 0 0 0 -0.309025,3.090768 15.602146,15.602146 0 0 0 0.293522,3.012736 h 29.96923 a 6.8559599,6.8559599 0 0 0 0.7059,-3.029789 6.8559599,6.8559599 0 0 0 -0.727604,-3.073715 z" />
  </g>
</svg>
